<svg width="24" height="24" viewBox="0 0 24 24" fill="none" xmlns="http://www.w3.org/2000/svg">
<path d="M11.9992 0.959607C18.0743 0.959607 22.9992 5.88449 22.9992 11.9596C22.9992 18.0347 18.0744 22.9596 11.9992 22.9596C5.92409 22.9596 0.999222 18.0347 0.999222 11.9596C0.999238 5.88449 5.9241 0.959607 11.9992 0.959607ZM11.9982 14.6266C11.7467 14.6267 11.5357 14.7114 11.3654 14.8815C11.1951 15.0519 11.1096 15.2634 11.1096 15.5153C11.1096 15.767 11.1952 15.9778 11.3654 16.1481C11.5357 16.3184 11.7466 16.4039 11.9982 16.4039C12.2501 16.4039 12.4617 16.3185 12.632 16.1481C12.8022 15.9778 12.8879 15.767 12.8879 15.5153C12.8879 15.2634 12.8024 15.0519 12.632 14.8815C12.4617 14.7112 12.25 14.6266 11.9982 14.6266ZM11.1096 7.51527V12.8483H12.8879V7.51527H11.1096Z" fill="#FF3273"/>
</svg>
