<svg width="24" height="24" viewBox="0 0 24 24" fill="none" xmlns="http://www.w3.org/2000/svg">
<path d="M11.0256 14.9907C10.6669 14.9907 10.3626 14.8658 10.1128 14.616C9.86296 14.3662 9.73806 14.0619 9.73806 13.7032V8.03754C9.73806 7.67881 9.86296 7.37454 10.1128 7.12472C10.3626 6.87491 10.6669 6.75 11.0256 6.75H15.2337C15.5924 6.75 15.8967 6.87491 16.1465 7.12472C16.3963 7.37454 16.5212 7.67881 16.5212 8.03754V13.7032C16.5212 14.0619 16.3963 14.3662 16.1465 14.616C15.8967 14.8658 15.5924 14.9907 15.2337 14.9907H11.0256ZM8.76633 17.25C8.4076 17.25 8.10333 17.1251 7.85351 16.8753C7.6037 16.6255 7.47879 16.3212 7.47879 15.9625V9.00927H8.76633V15.9625H14.2619V17.25H8.76633Z" fill="#B1B7C0"/>
</svg>
