<svg width="24" height="24" viewBox="0 0 24 24" fill="none" xmlns="http://www.w3.org/2000/svg">
<path d="M10.999 17H12.999V11H10.999V17ZM11.999 9C12.2824 9 12.5199 8.90417 12.7115 8.7125C12.9032 8.52083 12.999 8.28333 12.999 8C12.999 7.71667 12.9032 7.47917 12.7115 7.2875C12.5199 7.09583 12.2824 7 11.999 7C11.7157 7 11.4782 7.09583 11.2865 7.2875C11.0949 7.47917 10.999 7.71667 10.999 8C10.999 8.28333 11.0949 8.52083 11.2865 8.7125C11.4782 8.90417 11.7157 9 11.999 9ZM11.999 22C10.6157 22 9.31569 21.7375 8.09902 21.2125C6.88236 20.6875 5.82402 19.975 4.92402 19.075C4.02402 18.175 3.31152 17.1167 2.78652 15.9C2.26152 14.6833 1.99902 13.3833 1.99902 12C1.99902 10.6167 2.26152 9.31667 2.78652 8.1C3.31152 6.88333 4.02402 5.825 4.92402 4.925C5.82402 4.025 6.88236 3.3125 8.09902 2.7875C9.31569 2.2625 10.6157 2 11.999 2C13.3824 2 14.6824 2.2625 15.899 2.7875C17.1157 3.3125 18.174 4.025 19.074 4.925C19.974 5.825 20.6865 6.88333 21.2115 8.1C21.7365 9.31667 21.999 10.6167 21.999 12C21.999 13.3833 21.7365 14.6833 21.2115 15.9C20.6865 17.1167 19.974 18.175 19.074 19.075C18.174 19.975 17.1157 20.6875 15.899 21.2125C14.6824 21.7375 13.3824 22 11.999 22Z" fill="#ED5E26"/>
</svg>
