<svg width="24" height="24" viewBox="0 0 24 24" fill="none" xmlns="http://www.w3.org/2000/svg">
<path d="M17.25 12C17.25 9.10051 14.8995 6.75 12 6.75C9.10051 6.75 6.75 9.10051 6.75 12C6.75 14.8995 9.10051 17.25 12 17.25C14.8995 17.25 17.25 14.8995 17.25 12ZM21.75 12C21.75 17.3848 17.3848 21.75 12 21.75C6.61522 21.75 2.25 17.3848 2.25 12C2.25 6.61522 6.61522 2.25 12 2.25C17.3848 2.25 21.75 6.61522 21.75 12Z" fill="#CED1D9"/>
<path d="M17.2497 12C17.2497 10.8155 16.8598 9.72781 16.2009 8.85057C15.455 7.85703 15.6557 6.44734 16.6491 5.70116C17.6427 4.95503 19.0523 5.15589 19.7986 6.1494C21.0226 7.77911 21.7497 9.80775 21.7497 12C21.7497 16.5522 18.6315 20.3704 14.4182 21.4468C13.2143 21.7542 11.9894 21.0276 11.6819 19.8237C11.3744 18.6198 12.101 17.395 13.3049 17.0874C15.5742 16.5076 17.2497 14.4464 17.2497 12Z" fill="#B1B7C0"/>
</svg>
