<svg width="24" height="24" viewBox="0 0 24 24" fill="none" xmlns="http://www.w3.org/2000/svg">
<path d="M11.9989 18.9089C10.0803 18.9089 8.44948 18.2374 7.10648 16.8943C5.76336 15.5513 5.0918 13.9204 5.0918 12.0018C5.0918 10.0832 5.76348 8.44994 7.10686 7.10207C8.45036 5.75432 10.0817 5.08044 12.0008 5.08044C12.1545 5.08044 12.3087 5.08488 12.4634 5.09376C12.618 5.10276 12.7695 5.11976 12.9179 5.14476C12.4902 5.53551 12.1462 6.00207 11.8859 6.54444C11.6255 7.08682 11.4953 7.66726 11.4953 8.28576C11.4953 9.46088 11.9087 10.4597 12.7354 11.2822C13.562 12.1047 14.5658 12.5159 15.7467 12.5159C16.3635 12.5159 16.9418 12.3876 17.4814 12.1308C18.0212 11.8739 18.4829 11.5317 18.8665 11.1041C18.8845 11.2524 18.898 11.3994 18.907 11.5449C18.9159 11.6903 18.9203 11.8384 18.9203 11.9893C18.9203 13.9068 18.2464 15.5394 16.8987 16.8871C15.5508 18.235 13.9175 18.9089 11.9989 18.9089Z" fill="#ED5E26"/>
</svg>
