<svg width="24" height="24" viewBox="0 0 24 24" fill="none" xmlns="http://www.w3.org/2000/svg">
<path d="M21.18 12C21.18 6.93003 17.07 2.82 12 2.82C6.93004 2.82 2.82001 6.93003 2.82001 12C2.82001 17.07 6.93004 21.18 12 21.18V22.8C6.03534 22.8 1.20001 17.9647 1.20001 12C1.20001 6.03532 6.03534 1.2 12 1.2C17.9647 1.2 22.8 6.03532 22.8 12C22.8 17.9647 17.9647 22.8 12 22.8V21.18C17.07 21.18 21.18 17.07 21.18 12Z" fill="#CED1D9"/>
<path d="M11.9995 5.52002C10.9657 5.52002 9.94699 5.76734 9.02831 6.24133C8.10962 6.71533 7.31768 7.40223 6.71859 8.24469C6.1195 9.08716 5.73067 10.0607 5.58455 11.0841C5.43843 12.1075 5.53928 13.151 5.87866 14.1274C6.21804 15.1039 6.78611 15.985 7.53543 16.6971C8.28476 17.4093 9.19359 17.9318 10.186 18.2211C11.1785 18.5104 12.2257 18.5581 13.2404 18.3601C14.255 18.1621 15.2075 17.7243 16.0184 17.0832L11.9995 12V5.52002Z" fill="#B1B7C0"/>
</svg>
