<svg width="24" height="24" viewBox="0 0 24 24" fill="none" xmlns="http://www.w3.org/2000/svg">
<path d="M11.999 20C9.76569 20 7.87402 19.225 6.32402 17.675C4.77402 16.125 3.99902 14.2334 3.99902 12C3.99902 9.7667 4.77402 7.87503 6.32402 6.32503C7.87402 4.77503 9.76569 4.00003 11.999 4.00003C13.149 4.00003 14.249 4.23753 15.299 4.71253C16.349 5.18753 17.249 5.8667 17.999 6.75003V4.00003H19.999V11H12.999V9.00003H17.199C16.6657 8.0667 15.9365 7.33336 15.0115 6.80003C14.0865 6.2667 13.0824 6.00003 11.999 6.00003C10.3324 6.00003 8.91569 6.58336 7.74902 7.75003C6.58236 8.9167 5.99902 10.3334 5.99902 12C5.99902 13.6667 6.58236 15.0834 7.74902 16.25C8.91569 17.4167 10.3324 18 11.999 18C13.2824 18 14.4407 17.6334 15.474 16.9C16.5074 16.1667 17.2324 15.2 17.649 14H19.749C19.2824 15.7667 18.3324 17.2084 16.899 18.325C15.4657 19.4417 13.8324 20 11.999 20Z" fill="#828A96"/>
</svg>
