<svg width="24" height="24" viewBox="0 0 24 24" fill="none" xmlns="http://www.w3.org/2000/svg">
<g clip-path="url(#clip0_6009_51)">
<path d="M12.0006 15.75C10.9631 15.75 10.0787 15.3844 9.34746 14.6532C8.61621 13.9219 8.25059 13.0375 8.25059 12C8.25059 10.9625 8.61621 10.0782 9.34746 9.34691C10.0787 8.61566 10.9631 8.25004 12.0006 8.25004C13.0381 8.25004 13.9225 8.61566 14.6537 9.34691C15.385 10.0782 15.7506 10.9625 15.7506 12C15.7506 13.0375 15.385 13.9219 14.6537 14.6532C13.9225 15.3844 13.0381 15.75 12.0006 15.75ZM6.99434 12.9938H3.50684V11.0063H6.99434V12.9938ZM20.4943 12.9938H17.0068V11.0063H20.4943V12.9938ZM11.0068 6.99379V3.50629H12.9943V6.99379H11.0068ZM11.0068 20.4938V17.0063H12.9943V20.4938H11.0068ZM7.7899 9.17291L5.56765 7.01497L6.9649 5.54835L9.12527 7.74135L7.7899 9.17291ZM17.0363 18.4517L14.8571 16.24L16.2006 14.8484L18.4335 16.9851L17.0363 18.4517ZM14.8489 7.80004L16.9856 5.5671L18.4523 6.96435L16.2593 9.12472L14.8489 7.80004ZM5.5489 17.0357L7.76065 14.8566L9.15227 16.2L7.01552 18.433L5.5489 17.0357Z" fill="#04B08D"/>
</g>
<defs>
<clipPath id="clip0_6009_51">
<rect width="18" height="18" fill="white" transform="translate(3 3)"/>
</clipPath>
</defs>
</svg>
