<svg width="24" height="24" viewBox="0 0 24 24" fill="none" xmlns="http://www.w3.org/2000/svg">
<path d="M15 20C12.7667 20 10.875 19.225 9.325 17.675C7.775 16.125 7 14.2333 7 12C7 9.78333 7.775 7.89583 9.325 6.3375C10.875 4.77917 12.7667 4 15 4C17.2167 4 19.1042 4.77917 20.6625 6.3375C22.2208 7.89583 23 9.78333 23 12C23 14.2333 22.2208 16.125 20.6625 17.675C19.1042 19.225 17.2167 20 15 20ZM15 18C16.6667 18 18.0833 17.4167 19.25 16.25C20.4167 15.0833 21 13.6667 21 12C21 10.3333 20.4167 8.91667 19.25 7.75C18.0833 6.58333 16.6667 6 15 6C13.3333 6 11.9167 6.58333 10.75 7.75C9.58333 8.91667 9 10.3333 9 12C9 13.6667 9.58333 15.0833 10.75 16.25C11.9167 17.4167 13.3333 18 15 18ZM17.275 15.725L18.7 14.3L16 11.6V8H14V12.425L17.275 15.725ZM2 9V7H6V9H2ZM1 13V11H6V13H1ZM2 17V15H6V17H2Z" fill="#B1B7C0"/>
</svg>
