<svg width="24" height="24" viewBox="0 0 24 24" fill="none" xmlns="http://www.w3.org/2000/svg">
<path d="M21.18 12C21.18 6.93003 17.07 2.82 12 2.82C6.93004 2.82 2.82001 6.93003 2.82001 12C2.82001 17.07 6.93004 21.18 12 21.18V22.8C6.03534 22.8 1.20001 17.9647 1.20001 12C1.20001 6.03532 6.03534 1.2 12 1.2C17.9647 1.2 22.8 6.03532 22.8 12C22.8 17.9647 17.9647 22.8 12 22.8V21.18C17.07 21.18 21.18 17.07 21.18 12Z" fill="#CED1D9"/>
<path d="M13.7546 7.95054C13.5656 7.95054 13.4059 7.88529 13.2754 7.75479C13.1449 7.62429 13.0796 7.46454 13.0796 7.27554C13.0796 7.08654 13.1449 6.92679 13.2754 6.79629C13.4059 6.66579 13.5656 6.60054 13.7546 6.60054C13.9436 6.60054 14.1034 6.66579 14.2339 6.79629C14.3644 6.92679 14.4296 7.08654 14.4296 7.27554C14.4296 7.46454 14.3644 7.62429 14.2339 7.75479C14.1034 7.88529 13.9436 7.95054 13.7546 7.95054ZM13.7546 16.8605C13.5656 16.8605 13.4059 16.7953 13.2754 16.6648C13.1449 16.5343 13.0796 16.3745 13.0796 16.1855C13.0796 15.9965 13.1449 15.8368 13.2754 15.7063C13.4059 15.5758 13.5656 15.5105 13.7546 15.5105C13.9436 15.5105 14.1034 15.5758 14.2339 15.7063C14.3644 15.8368 14.4296 15.9965 14.4296 16.1855C14.4296 16.3745 14.3644 16.5343 14.2339 16.6648C14.1034 16.7953 13.9436 16.8605 13.7546 16.8605ZM15.9146 9.84054C15.7256 9.84054 15.5659 9.77529 15.4354 9.64479C15.3049 9.51429 15.2396 9.35454 15.2396 9.16554C15.2396 8.97654 15.3049 8.81679 15.4354 8.68629C15.5659 8.55579 15.7256 8.49054 15.9146 8.49054C16.1036 8.49054 16.2634 8.55579 16.3939 8.68629C16.5244 8.81679 16.5896 8.97654 16.5896 9.16554C16.5896 9.35454 16.5244 9.51429 16.3939 9.64479C16.2634 9.77529 16.1036 9.84054 15.9146 9.84054ZM15.9146 14.9705C15.7256 14.9705 15.5659 14.9053 15.4354 14.7748C15.3049 14.6443 15.2396 14.4845 15.2396 14.2955C15.2396 14.1065 15.3049 13.9468 15.4354 13.8163C15.5659 13.6858 15.7256 13.6205 15.9146 13.6205C16.1036 13.6205 16.2634 13.6858 16.3939 13.8163C16.5244 13.9468 16.5896 14.1065 16.5896 14.2955C16.5896 14.4845 16.5244 14.6443 16.3939 14.7748C16.2634 14.9053 16.1036 14.9705 15.9146 14.9705ZM16.7246 12.4055C16.5356 12.4055 16.3759 12.3403 16.2454 12.2098C16.1149 12.0793 16.0496 11.9195 16.0496 11.7305C16.0496 11.5415 16.1149 11.3818 16.2454 11.2513C16.3759 11.1208 16.5356 11.0555 16.7246 11.0555C16.9136 11.0555 17.0734 11.1208 17.2039 11.2513C17.3344 11.3818 17.3996 11.5415 17.3996 11.7305C17.3996 11.9195 17.3344 12.0793 17.2039 12.2098C17.0734 12.3403 16.9136 12.4055 16.7246 12.4055ZM11.9996 17.1305C11.2526 17.1305 10.5506 16.9888 9.89361 16.7053C9.23661 16.4218 8.66511 16.037 8.17911 15.551C7.69311 15.065 7.30836 14.4935 7.02486 13.8365C6.74136 13.1795 6.59961 12.4775 6.59961 11.7305C6.59961 10.9835 6.74136 10.2815 7.02486 9.62454C7.30836 8.96754 7.69311 8.39604 8.17911 7.91004C8.66511 7.42404 9.23661 7.03929 9.89361 6.75579C10.5506 6.47229 11.2526 6.33054 11.9996 6.33054V7.41054C10.7936 7.41054 9.77211 7.82904 8.93511 8.66604C8.09811 9.50304 7.67961 10.5245 7.67961 11.7305C7.67961 12.9365 8.09811 13.958 8.93511 14.795C9.77211 15.632 10.7936 16.0505 11.9996 16.0505V17.1305ZM13.7816 14.2685L11.4596 11.9465V9.03054H12.5396V11.5145L14.5376 13.5125L13.7816 14.2685Z" fill="#B1B7C0"/>
</svg>
