<svg width="24" height="24" viewBox="0 0 24 24" fill="none" xmlns="http://www.w3.org/2000/svg">
<path d="M12 13.1033C12.1651 13.1034 12.3037 13.1592 12.4154 13.2709C12.5271 13.3826 12.583 13.5212 12.583 13.6863C12.583 13.8514 12.527 13.99 12.4154 14.1018C12.3037 14.2135 12.1651 14.2693 12 14.2693C11.8348 14.2693 11.6964 14.2135 11.5846 14.1018C11.4728 13.99 11.417 13.8515 11.417 13.6863C11.4171 13.5212 11.4729 13.3826 11.5846 13.2709C11.6963 13.1593 11.8349 13.1033 12 13.1033Z" fill="#ED5E26"/>
<path d="M12.583 9.12246V12.4688H11.417V9.12246H12.583Z" fill="#ED5E26"/>
<path fill-rule="evenodd" clip-rule="evenodd" d="M12 1.2C17.9647 1.2 22.8 6.03532 22.8 12C22.8 17.9647 17.9647 22.8 12 22.8C6.03534 22.8 1.20001 17.9647 1.20001 12C1.20001 6.03532 6.03534 1.2 12 1.2ZM13.1227 7.73379C12.6239 6.87001 11.3763 6.87014 10.8774 7.73379L7.51056 13.5656C7.01177 14.4295 7.63513 15.5096 8.63263 15.5098H15.3674C16.3648 15.5094 16.9882 14.4295 16.4895 13.5656L13.1227 7.73379Z" fill="#ED5E26"/>
</svg>
